# xmcd CD database file
#
# Track frame offsets:
#	150
#	13543
#	27655
#	44226
#	58048
#	72224
#	84694
#	97491
#	111755
#	125614
#	141483
#	155832
#	168880
#	180798
#	194134
#	206365
#	218237
#
# Disc length: 3095 seconds
#
# Revision: 0
# Processed by: cddbd v1.5.2PL0 Copyright (c) Steve Scherf et al.
# Submitted via: CDex 1.51
#
DISCID=090c1511
DTITLE=Various Artist - Mississippi Bluesmen [CD3]
DYEAR=2012
DGENRE=Blues
TTITLE0=Muddy Waters - Mannish Boy
TTITLE1=Howlin' Wolf - Smokestack Lightning
TTITLE2=B.B. King - It's My Own Fault
TTITLE3=Robert Johnson - Sweet Home Chicago
TTITLE4=Otis Rush - I Can't Quit You Baby
TTITLE5=Elmore James - The Sky Is Crying
TTITLE6=Big Joe Williams - Baby Please Don't Go
TTITLE7=John Lee Hooker - I'm In The Mood
TTITLE8=Charley Patton - Down The Dirt Road Blues
TTITLE9=Son House - Death Letter Blues
TTITLE10=James Cotton - So Glad I'm Living
TTITLE11=Bukka White - Fixin' To Die Blues
TTITLE12=Arthur "Big Boy" Crudup - Mean Old Frisco Blues
TTITLE13=Mississippi John Hurt - Louis Collins
TTITLE14=Jimmy Reed - Honest I Do
TTITLE15=Eddie Boyd - Come On Home
TTITLE16=Willie Dixon - Walking The Blues
EXTD=YEAR: 2012
EXTT0=
EXTT1=
EXTT2=
EXTT3=
EXTT4=
EXTT5=
EXTT6=
EXTT7=
EXTT8=
EXTT9=
EXTT10=
EXTT11=
EXTT12=
EXTT13=
EXTT14=
EXTT15=
EXTT16=
PLAYORDER=
